<svg width="162" height="81" viewBox="0 0 162 81" fill="none" xmlns="http://www.w3.org/2000/svg">
<path d="M33.824 1.192V40H25.704V26.504C25.704 22.6213 26.0587 18.7947 26.768 15.024L21.392 30.144H14.896L9.52 15.024C10.2293 18.496 10.584 22.3227 10.584 26.504V40H2.52V1.192H11.144L18.144 21.016L25.144 1.192H33.824ZM55.6312 11.104C55.6312 9.23733 54.5112 8.304 52.2712 8.304C50.0685 8.304 48.9672 9.23733 48.9672 11.104V30.088C48.9672 31.9547 50.0685 32.888 52.2712 32.888C54.5112 32.888 55.6312 31.9547 55.6312 30.088V11.104ZM40.5672 10.656C40.5672 7.59467 41.5565 5.168 43.5352 3.376C45.5139 1.54667 48.4259 0.631999 52.2712 0.631999C56.1165 0.631999 59.0285 1.54667 61.0072 3.376C63.0232 5.168 64.0312 7.59467 64.0312 10.656V30.536C64.0312 33.5973 63.0232 36.0427 61.0072 37.872C59.0285 39.664 56.1165 40.56 52.2712 40.56C48.4259 40.56 45.5139 39.664 43.5352 37.872C41.5565 36.0427 40.5672 33.5973 40.5672 30.536V10.656ZM86.3896 1.192H95.1256L87.7336 40H76.0296L68.5256 1.192H77.0936C79.259 13.5493 80.5096 21.016 80.8456 23.592C81.1816 26.168 81.555 29.2107 81.9656 32.72C82.675 26.0373 83.291 21.0347 83.8136 17.712L86.3896 1.192ZM100.185 1.192H108.697V40H100.185V1.192ZM115.988 1.192H135.644V8.472H124.388V16.704H134.132V23.984H124.388V32.72H135.644V40H115.988V1.192Z" fill="url(#paint0_linear_58_13)"/>
<path d="M76.4858 73L69.7244 48.2727H72.767L77.9347 68.4119H78.1761L83.4403 48.2727H86.821L92.0852 68.4119H92.3267L97.4943 48.2727H100.537L93.7756 73H90.6847L85.2273 53.2955H85.0341L79.5767 73H76.4858ZM102.719 73V54.4545H105.472V57.2557H105.665C106.003 56.3381 106.615 55.5935 107.501 55.022C108.386 54.4505 109.384 54.1648 110.495 54.1648C110.704 54.1648 110.966 54.1688 111.28 54.1768C111.594 54.1849 111.831 54.197 111.992 54.2131V57.1108C111.895 57.0866 111.674 57.0504 111.328 57.0021C110.99 56.9458 110.632 56.9176 110.253 56.9176C109.352 56.9176 108.547 57.1068 107.839 57.4851C107.138 57.8553 106.583 58.3705 106.172 59.0305C105.77 59.6825 105.569 60.4271 105.569 61.2642V73H102.719ZM122.339 73.3864C120.665 73.3864 119.196 72.9879 117.932 72.1911C116.677 71.3942 115.695 70.2794 114.986 68.8466C114.286 67.4138 113.936 65.7396 113.936 63.8239C113.936 61.892 114.286 60.2057 114.986 58.7649C115.695 57.3241 116.677 56.2053 117.932 55.4084C119.196 54.6115 120.665 54.2131 122.339 54.2131C124.014 54.2131 125.479 54.6115 126.734 55.4084C127.998 56.2053 128.98 57.3241 129.68 58.7649C130.389 60.2057 130.743 61.892 130.743 63.8239C130.743 65.7396 130.389 67.4138 129.68 68.8466C128.98 70.2794 127.998 71.3942 126.734 72.1911C125.479 72.9879 124.014 73.3864 122.339 73.3864ZM122.339 70.8267C123.611 70.8267 124.657 70.5007 125.479 69.8487C126.3 69.1967 126.907 68.3395 127.302 67.277C127.696 66.2145 127.893 65.0634 127.893 63.8239C127.893 62.5843 127.696 61.4292 127.302 60.3587C126.907 59.2881 126.3 58.4228 125.479 57.7628C124.657 57.1027 123.611 56.7727 122.339 56.7727C121.068 56.7727 120.021 57.1027 119.2 57.7628C118.379 58.4228 117.771 59.2881 117.377 60.3587C116.983 61.4292 116.785 62.5843 116.785 63.8239C116.785 65.0634 116.983 66.2145 117.377 67.277C117.771 68.3395 118.379 69.1967 119.2 69.8487C120.021 70.5007 121.068 70.8267 122.339 70.8267ZM137.942 48.2727V73H135.092V48.2727H137.942ZM150.164 73.3864C148.618 73.3864 147.254 72.996 146.07 72.2152C144.887 71.4264 143.962 70.3156 143.294 68.8828C142.625 67.442 142.291 65.7396 142.291 63.7756C142.291 61.8277 142.625 60.1373 143.294 58.7045C143.962 57.2718 144.891 56.165 146.083 55.3842C147.274 54.6035 148.65 54.2131 150.212 54.2131C151.419 54.2131 152.373 54.4143 153.073 54.8168C153.782 55.2112 154.321 55.6619 154.691 56.169C155.07 56.6681 155.363 57.0786 155.573 57.4006H155.814V48.2727H158.664V73H155.911V70.1506H155.573C155.363 70.4886 155.066 70.9152 154.679 71.4304C154.293 71.9375 153.741 72.3923 153.025 72.7947C152.309 73.1892 151.355 73.3864 150.164 73.3864ZM150.55 70.8267C151.693 70.8267 152.659 70.5289 153.448 69.9332C154.236 69.3295 154.836 68.4964 155.247 67.4339C155.657 66.3634 155.862 65.1278 155.862 63.7273C155.862 62.3428 155.661 61.1314 155.259 60.093C154.856 59.0466 154.261 58.2337 153.472 57.6541C152.683 57.0665 151.709 56.7727 150.55 56.7727C149.343 56.7727 148.336 57.0826 147.531 57.7024C146.735 58.3142 146.135 59.1473 145.732 60.2017C145.338 61.2481 145.141 62.4233 145.141 63.7273C145.141 65.0473 145.342 66.2467 145.744 67.3253C146.155 68.3958 146.759 69.2491 147.556 69.8849C148.36 70.5128 149.359 70.8267 150.55 70.8267Z" fill="white"/>
<defs>
<linearGradient id="paint0_linear_58_13" x1="-14.9767" y1="24.5" x2="138" y2="24.5" gradientUnits="userSpaceOnUse">
<stop stop-color="#0494F7"/>
<stop offset="1" stop-color="#301BBA"/>
</linearGradient>
</defs>
</svg>
