<svg width="176" height="176" viewBox="0 0 176 176" fill="none" xmlns="http://www.w3.org/2000/svg">
<path d="M93.1207 60.2397C93.1207 61.3267 93.1207 64.8695 93.1207 69.9027H110.409L108.535 85.3292H93.1207C93.1207 109.12 93.1207 141 93.1207 141H72.6609C72.6609 141 72.6609 109.542 72.6609 85.3292H62V69.9027H72.6609C72.6609 63.785 72.6609 59.4348 72.6609 58.2236C72.6609 52.4527 72.2266 49.7146 74.6763 45.2426C77.1273 40.7709 84.0408 34.8602 95.9982 35.0025C107.959 35.15 113 36.3017 113 36.3017L110.409 52.7425C110.409 52.7425 102.772 50.7239 99.0233 51.4433C95.2795 52.1629 93.1207 54.4713 93.1207 60.2397Z" fill="white"/>
</svg>
