<svg width="204" height="204" viewBox="0 0 204 204" fill="none" xmlns="http://www.w3.org/2000/svg">
<path fill-rule="evenodd" clip-rule="evenodd" d="M78.1608 83.3504V150H54.0018V83.3504H78.1608ZM114.579 83.2272V87.1546C118.106 84.8783 122.173 83.555 128.34 83.555C148.426 83.555 150.999 99.1491 150.999 112.734V149.998H126.719V114.591C126.719 108.637 124.588 107.508 120.649 107.508C116.904 107.508 114.579 108.697 114.579 114.591V149.998H90.2986V83.2272H114.579ZM66.0795 53C72.7444 53 78.159 58.4206 78.159 65.0795C78.159 71.7384 72.7444 77.159 66.0794 77.159C59.4206 77.159 54 71.7384 54 65.0794C54 58.4206 59.4206 53 66.0795 53Z" fill="white"/>
</svg>
