<svg width="251" height="251" viewBox="0 0 251 251" fill="none" xmlns="http://www.w3.org/2000/svg">
<path d="M180.77 97.1427C180.825 98.3674 180.853 99.5979 180.853 100.834C180.853 138.532 152.166 182 99.7174 182C83.6116 182 68.6199 177.277 56 169.183C58.2338 169.447 60.5008 169.583 62.8037 169.583C76.1654 169.583 88.4598 165.022 98.2227 157.369C85.7407 157.14 75.2112 148.892 71.5819 137.559C73.325 137.892 75.1094 138.072 76.9488 138.072C79.5466 138.072 82.0671 137.722 84.4611 137.07C71.4165 134.449 61.5845 122.92 61.5845 109.099C61.5845 108.978 61.5845 108.859 61.5875 108.74C65.4319 110.875 69.828 112.158 74.505 112.307C66.8521 107.193 61.819 98.461 61.819 88.5625C61.819 83.3347 63.2226 78.4351 65.6797 74.2223C79.7449 91.4811 100.754 102.836 124.455 104.028C123.97 101.94 123.716 99.7631 123.716 97.5258C123.716 81.7731 136.484 69 152.232 69C160.439 69 167.846 72.465 173.048 78.0074C179.545 76.7301 185.646 74.3548 191.156 71.0854C189.027 77.748 184.509 83.3372 178.619 86.8683C184.388 86.1785 189.887 84.6449 195 82.3772C191.178 88.0964 186.341 93.1201 180.77 97.1427Z" fill="white"/>
</svg>
